<?xml version="1.0" encoding="UTF-8" standalone="no"?>
<svg
   version="1.0"
   width="753.11731pt"
   height="666.6806pt"
   viewBox="0 0 753.11731 666.6806"
   preserveAspectRatio="xMidYMid"
   id="svg48"
   xmlns="http://www.w3.org/2000/svg"
   xmlns:svg="http://www.w3.org/2000/svg">
  <defs
     id="defs48" />
  <g
     transform="matrix(0.1,0,0,-0.1,-109.82248,860.59992)"
     fill="#000000"
     stroke="none"
     id="g48">
    <path
       style="opacity:1;fill:#bac5bc;fill-opacity:1;stroke:none;stroke-width:14.1732;stroke-linecap:square;stroke-linejoin:round;stroke-opacity:1"
       d="m 1253.2349,4830.3075 c -65.5708,-189.2231 -58.3649,-400.407 -37.7859,-598.278 67.1493,-183.5786 107.2298,-358.0883 132.2509,-554.1943 70.0832,-217.1098 124.3436,-449.8295 182.6322,-673.85 24.326,-165.685 86.0983,-319.3047 144.546,-472.7013 19.0722,-102.1568 87.1275,-149.7879 203.6511,-125.5769 275.5139,1.4701 565.8793,2.9095 828.4648,-25.4951 415.3901,-20.7935 832.2817,-28.5018 1247.9383,-50.0764 403.4365,6.6483 805.5657,-26.3691 1209.3789,-19.4307 212.7318,-8.9062 425.9076,-0.1367 635.8364,-43.546 205.7878,-10.5171 410.6398,-4.5637 614.1584,21.4865 213.3688,26.3278 417.5045,86.2364 634.8168,66.3053 153.8624,87.0294 23.395,410.4653 -191.1569,331.5607 -227.982,21.0901 -457.0732,26.5962 -686.2562,27.7817 -207.3977,8.8852 -519.3307,-112.0095 -665.7551,40.9786 -58.1635,204.3192 -55.9923,418.3261 -127.2459,620.1066 -28.0839,169.7614 -78.2658,258.1184 -126.4578,422.1126 -28.1644,213.0474 -88.138,371.4908 -117.054,540.9043 -39.0759,108.5986 -24.297,271.674 -108.5747,384.5037 -69.5279,167.25 -234.9258,158.3285 -382.9633,151.4924 -312.3604,5.634 -626.8006,-12.9792 -937.4299,12.987 -214.9496,12.4399 -430.5674,34.0187 -647.126,26.3984 -319.1187,-1.549 -635.5485,-71.1642 -955.6836,-58.2784 -240.4844,-26.7829 -483.744,-49.2596 -726.2947,-57.378 -40.5052,-15.4938 -82.72,-5.1933 -123.8898,0.699"
       id="path52"
       transform="translate(0,2.5e-4)" />
    <path
       style="opacity:1;fill:#d9e3dc;fill-opacity:1;stroke:none;stroke-width:14.1732;stroke-linecap:square;stroke-linejoin:round;stroke-opacity:1"
       d="m 7406.0516,4660.2708 c -188.6761,74.3709 -649.3847,416.2406 -519.2847,308.2622 -100.427,161.0127 1.4104,363.3841 183.7952,496.3106 161.7758,317.9906 183.4309,477.1385 211.0872,799.4658 48.5144,309.723 94.7234,689.8455 -54.7262,961.0859 -136.9971,245.76 -217.6017,542.8372 -470.9876,668.8469 -185.65,239.0867 -546.0981,369.6399 -819.8478,463.6519 -295.0128,117.7753 -650.1921,130.1819 -971.3683,143.3182 -321.0524,-53.3497 -587.733,-248.8111 -877.9837,-412.5897 -232.5833,-98.883 -463.4072,-371.8528 -610.4257,-569.2128 -111.0995,-198.9717 -231.2403,-460.2695 -277.0972,-692.7429 -28.7488,-244.5459 -104.7317,-618.4712 27.3516,-841.0929 81.0797,-263.7854 426.9752,-1069.599 426.9752,-1069.599 0,0 854.814,-41.2801 1358.9759,-110.6884 228.0685,-443.4704 406.6466,-1389.627 485.3443,-2128.7798 240.3599,-68.218 492.9579,-28.7267 774.6125,-31.4877 222.3699,21.5744 611.4455,27.8031 787.0225,-17.1797 146.185,-201.7917 864.3324,-593.9683 245.7943,-285.1081 247.6641,-112.396 585.6565,-46.5995 806.1011,37.7857 202.0294,183.1023 387.281,566.6827 302.2875,453.4317 58.5473,198.2436 145.5295,407.0436 -96.1354,538.5184 -195.2601,144.3682 -643.6924,383.8349 -255.8081,475.3125 -142.0395,-34.0375 -47.8047,-289.7242 -126.6787,-31.3955 -179.641,203.2201 -6.5658,-255.9447 -37.7865,-100.7628 254.8433,49.9708 383.5504,281.0035 560.231,437.4121 138.0202,248.4846 17.5915,599.5579 -31.8027,879.4293 -123.8897,279.6475 66.1247,561.4139 -2.0856,852.8364 -186.4427,142.1546 -416.647,3.5878 -524.1196,-173.3348 -128.4749,-285.0605 -126.5071,-640.5299 -119.9027,-923.5793 -31.9782,-137.3996 -235.061,-263.2658 -373.5378,-128.1142 z"
       id="path51" />
    <g
       id="path42"
       style="display:inline;fill:#8ca69b;fill-opacity:1"
       transform="translate(0,2.5e-4)">
      <path
         style="color:#000000;fill:#8ca69b;fill-opacity:1;-inkscape-stroke:none"
         d="m 5125,8604 c -503,-39 -951,-221 -1336,-546 -266,-223 -480,-524 -604,-848 -37,-98 -96,-322 -116,-445 -21,-124 -18,-533 4,-666 27,-162 72,-319 130,-458 63,-151 122,-253 235,-404 101,-135 122,-174 122,-227 v -40 H 2433 c -916,-1 -1135,-3 -1166,-14 -83,-30 -150,-109 -165,-197 -10,-57 -13,-41 238,-1298 157,-785 217,-1066 235,-1100 30,-60 88,-114 150,-143 l 50,-23 2610,-3 c 2920,-3 2670,-9 2759,69 l 44,39 86,-44 c 159,-81 366,-112 550,-82 445,73 767,477 716,898 -13,106 -29,158 -81,258 -74,142 -198,263 -346,337 l -92,46 47,22 c 75,36 191,122 270,202 175,177 276,412 289,673 10,200 -18,333 -120,575 -65,156 -72,222 -32,316 62,146 78,201 72,262 -11,119 -77,204 -195,253 -240,99 -557,-124 -648,-456 -29,-103 -26,-345 5,-473 52,-213 -5,-368 -151,-412 -67,-20 -83,-19 -164,6 -114,35 -234,121 -310,223 -61,79 -84,136 -84,199 0,68 27,124 129,266 88,124 192,325 240,463 114,329 126,788 32,1159 -94,371 -289,709 -562,974 -419,407 -933,621 -1534,639 -71,2 -152,2 -180,0 z m 414,-209 c 283,-35 542,-122 776,-260 411,-242 730,-638 873,-1085 71,-221 103,-507 84,-736 -29,-342 -115,-582 -299,-839 -47,-66 -102,-154 -122,-195 -34,-70 -36,-81 -36,-170 0,-91 2,-99 41,-180 92,-188 290,-363 479,-423 90,-28 225,-30 303,-3 111,38 213,146 249,265 25,80 24,277 -1,396 -22,106 -25,238 -7,315 20,85 76,193 132,254 89,98 213,141 290,101 34,-18 69,-69 69,-102 0,-13 -24,-71 -52,-130 l -53,-108 v -105 c 0,-113 5,-130 89,-332 64,-153 79,-224 80,-393 1,-159 -9,-214 -58,-337 -53,-131 -151,-256 -275,-350 -345,-261 -888,-260 -1242,3 -91,67 -210,194 -289,309 -87,127 -120,160 -158,160 -39,0 -80,-36 -87,-75 -7,-35 32,-107 131,-237 145,-194 297,-328 459,-408 190,-92 312,-117 635,-130 256,-10 340,-25 455,-79 281,-133 420,-443 320,-718 -39,-110 -72,-162 -155,-243 -193,-191 -439,-251 -708,-174 -137,40 -242,99 -242,138 0,39 -29,111 -60,148 -40,48 -124,88 -197,95 -56,5 -59,7 -76,44 -26,55 -115,140 -189,180 -61,33 -67,34 -173,34 -127,0 -163,-13 -300,-105 -119,-80 -178,-105 -255,-104 -112,0 -178,50 -202,152 -9,43 -8,61 7,118 24,88 97,197 177,263 73,60 197,124 283,146 88,23 243,20 333,-5 141,-39 217,-88 378,-240 174,-165 283,-231 453,-272 156,-37 426,-13 488,44 46,43 36,107 -21,134 -32,16 -39,16 -118,-5 -117,-29 -234,-28 -333,3 -108,35 -200,93 -317,203 -269,252 -445,334 -713,334 -135,0 -232,-20 -341,-71 l -82,-38 -40,72 c -69,120 -119,235 -156,360 -19,66 -42,126 -50,134 -7,8 -34,17 -59,19 -40,5 -49,2 -73,-22 -24,-24 -26,-32 -21,-79 11,-110 111,-356 210,-520 l 44,-72 -50,-54 c -131,-143 -188,-294 -166,-447 9,-67 46,-162 75,-194 13,-15 10,-17 -38,-22 -28,-4 -53,-5 -54,-4 -4,4 -211,1070 -309,1587 -96,504 -108,536 -239,600 l -63,31 -609,5 -609,5 -7,56 c -10,75 -51,160 -128,263 -91,121 -140,201 -198,316 -224,446 -248,1015 -65,1509 99,268 284,544 496,742 303,283 722,478 1143,532 115,14 409,12 543,-4 z m 1251,-400 c 19,-19 32,-35 29,-35 -3,0 -20,16 -39,35 -19,19 -32,35 -29,35 3,0 20,-16 39,-35 z m 91,-92 c 13,-16 12,-17 -3,-4 -10,7 -18,15 -18,17 0,8 8,3 21,-13 z M 3077,6608 c -3,-8 -6,-5 -6,6 -1,11 2,17 5,13 3,-3 4,-12 1,-19 z M 7241,5577 c -10,-9 -11,-8 -5,6 3,10 9,15 12,12 3,-3 0,-11 -7,-18 z m 606,-289 c -3,-8 -6,-5 -6,6 -1,11 2,17 5,13 3,-3 4,-12 1,-19 z M 4977,4775 c 30,-21 34,-39 103,-400 33,-176 83,-432 110,-570 27,-137 60,-308 74,-380 14,-71 59,-304 100,-516 42,-212 76,-388 76,-392 0,-4 -836,-7 -1858,-7 H 1723 l -217,1088 c -119,598 -216,1100 -216,1116 0,17 10,40 22,53 l 21,23 h 1812 c 1595,0 1813,-2 1832,-15 z m 3353,-828 c 0,-2 -12,-14 -27,-28 l -28,-24 24,28 c 23,25 31,32 31,24 z m -903,-183 c -3,-3 -12,-4 -19,-1 -8,3 -5,6 6,6 11,1 17,-2 13,-5 z m 130,0 c -3,-3 -12,-4 -19,-1 -8,3 -5,6 6,6 11,1 17,-2 13,-5 z m -918,-954 c 28,-19 51,-38 51,-42 0,-4 -84,-7 -186,-6 -184,2 -185,2 -162,20 96,78 208,88 297,28 z m 336,-234 c 68,-29 87,-122 36,-178 l -29,-33 -692,-3 c -640,-2 -692,-1 -686,14 19,50 28,111 23,160 l -6,54 h 660 c 547,0 665,-2 694,-14 z m 1335,-129 c 0,-2 -12,-14 -27,-28 l -28,-24 24,28 c 23,25 31,32 31,24 z M 2058,2213 c -38,-2 -98,-2 -135,0 -38,2 -7,3 67,3 74,0 105,-1 68,-3 z m 1904,0 c -331,-2 -873,-2 -1205,0 -331,1 -60,2 603,2 663,0 934,-1 602,-2 z m 2406,0 c -328,-2 -868,-2 -1200,0 -332,1 -63,2 597,2 660,0 931,-1 603,-2 z"
         id="path49" />
      <path
         style="color:#000000;fill:#8ca69b;fill-opacity:1;-inkscape-stroke:none"
         d="m 7682.7969,2162.2637 c -143.3732,-0.1429 -289.6908,32.4989 -409.0235,93.291 l -85.6972,43.8437 -43.7461,-38.7734 v 0 c -11.0826,-9.7128 -16.8881,-18.1229 -24.3164,-25.4609 -7.4283,-7.3379 -16.4763,-13.5527 -33.8867,-18.75 -34.8209,-10.3945 -103.1678,-16.8494 -259.9903,-20.7871 C 6512.4918,2187.7495 5844.9982,2190 4385,2191.5 l -2610.1094,3 -50.1015,23.0469 c -62.1033,29.0483 -120.1672,83.1002 -150.2305,143.2187 -5e-4,9e-4 0,0 0,0 v 0.01 c -4.5796,8.6572 -11.6652,32.5461 -22.2734,75.9317 -10.6116,43.3995 -24.7046,106.2477 -43.1426,192.5625 -36.876,172.6296 -91.1269,439.1305 -169.6269,831.6308 -125.4999,628.4994 -187.5002,938.7479 -216.877,1099.0079 -14.6884,80.13 -21.2215,122.7604 -23.459,148.9531 -2.2375,26.1926 -0.1646,35.9808 2.334,50.2226 15.0337,88.1934 82.14,167.3189 165.3223,197.3848 v 0 c 7.9204,2.8104 27.3854,4.9663 66.5996,6.7168 39.2143,1.7505 98.1227,3.0625 184.6875,4.0625 173.1297,2.0001 456.881,2.75 914.8809,3.25 h 1126.5 v 39.5 c 0,26.4339 -5.2157,49.3124 -23.0645,82.5137 -17.8487,33.2012 -48.3398,76.6927 -98.8359,144.1875 -113.0146,151.0195 -172.0487,253.0771 -235.0605,404.1054 -58.0161,139.0386 -103.0271,296.0743 -130.0332,458.1114 -22.0258,133.1554 -25.0296,541.9799 -3.9981,666.166 v 0 c 20.0095,123.0587 79.0005,347.0246 116.0273,445.0957 v 0 0 c 124.0314,324.082 338.0768,625.1459 604.1445,848.2031 385.0754,325.0637 833.187,507.1078 1336.2832,546.1152 v 0 0 c 28.0684,2.0049 109.0382,2.0023 180.0489,0 v 0 c 601.1094,-18.0033 1115.2487,-232.0597 1534.3321,-639.1406 273.0668,-265.0649 468.1141,-603.1472 562.1367,-974.2364 94.0265,-371.1046 82.0317,-830.1617 -32.0117,-1159.2871 -48.0241,-138.0692 -152.0246,-339.0687 -240.0645,-463.125 v 0 c -50.9939,-70.9916 -83.2312,-120.4777 -102.707,-160.6778 -19.4758,-40.2 -26.1992,-71.0974 -26.1992,-105.0312 0,-62.8782 22.9305,-119.7394 83.8965,-198.6953 v 0 0 c 75.9297,-101.9056 195.8718,-187.8589 309.7461,-222.8203 80.985,-24.9953 96.736,-25.9918 163.709,-6 72.8618,21.9584 123.4722,71.5699 149.4257,142.3184 25.9536,70.7484 27.2158,162.6521 1.2325,269.084 v 0 c -31.0322,128.1328 -34.0519,370.0467 -4.9942,473.252 v 0 c 45.5315,166.1151 147.5942,304.9542 268.3203,389.9004 120.7261,84.9462 260.1595,116.0097 380.3535,66.4297 v 0 c 118.1274,-49.0529 184.2913,-134.2524 195.3066,-253.4121 v 0 c 6.0109,-61.1145 -10.0322,-116.2308 -72.0371,-262.2422 -19.9793,-46.9515 -28.2042,-86.8387 -23.3379,-134.5039 4.8664,-47.6648 22.8456,-103.1257 55.3379,-181.1074 v 0 c 102.0121,-242.0289 130.0419,-375.1599 120.0391,-575.2168 -13.0056,-261.1133 -114.0568,-496.2374 -289.1445,-673.3262 -79.046,-80.0465 -195.04,-166.0522 -270.1387,-202.0996 v 0 l -46.0664,-21.5644 91.0743,-45.5371 c 148.0949,-74.0475 272.1687,-195.1172 346.2207,-337.2168 52.0133,-100.0256 68.0491,-152.1405 81.0527,-258.17 51.0348,-421.2869 -271.1637,-825.5132 -716.416,-898.5546 -46.0282,-7.5046 -93.4922,-11.1946 -141.2832,-11.2422 z m 0,1.0039 c 47.7401,0.046 95.1513,3.7311 141.123,11.2265 444.7468,72.9585 766.5491,476.7331 715.584,897.4454 -12.9964,105.9703 -28.9607,157.8558 -80.9473,257.83 -73.9479,141.9001 -197.8745,262.8308 -345.7793,336.7832 l -92.9257,46.4629 47.9355,22.4375 c 74.9013,35.9537 190.9049,121.9465 269.8574,201.8985 174.9119,176.9108 275.8612,411.7877 288.8555,672.6738 9.9971,199.9423 -17.9738,332.8117 -119.9609,574.7812 v 0 c -32.5072,78.0171 -50.5285,133.5559 -55.4121,181.3906 -4.8837,47.8347 3.3915,87.9477 23.4121,134.9961 61.9943,145.9868 77.9515,200.8712 71.9629,261.7559 v 0 c -10.9852,118.8391 -76.8217,203.6392 -194.6934,252.586 v 0 c -119.8058,49.4199 -258.8729,18.4834 -379.3965,-66.3203 -120.5236,-84.8037 -222.4613,-223.465 -267.9297,-389.3496 v 0 0 c -28.9421,-102.7941 -25.9615,-344.8787 5.0058,-472.7461 v 0 c 26.0161,-106.5672 24.7787,-198.6631 -1.2676,-269.6641 -26.0463,-71.0014 -76.9361,-120.89 -150.0742,-142.9316 v 0 c -67.0252,-20.0075 -83.275,-19.0044 -164.2891,6 -114.1254,35.0385 -234.1838,121.0855 -310.2539,223.1797 C 7022.5691,4982.742 6999.5,5039.8799 6999.5,5103 c 0,34.0661 6.7766,65.1689 26.3008,105.4687 19.5241,40.2999 51.787,89.8141 102.7929,160.8223 87.9597,123.9437 191.9581,324.9434 239.9336,462.8731 113.9564,328.874 125.9616,787.8182 31.9883,1158.7129 -93.9772,370.9101 -288.9306,708.829 -561.8633,973.7636 -418.9158,406.9183 -932.7785,620.8627 -1533.6679,638.8594 -70.9865,1.9996 -152.0114,1.9969 -179.9453,0 v 0 C 4622.1379,8564.5069 4174.249,8382.55 3789.3262,8057.6152 v 0 c -265.9311,-222.9423 -479.8853,-523.88 -603.8535,-847.7969 v 0 C 3148.4996,7111.8896 3089.4905,6887.8551 3069.5,6764.914 v 0 0 c -20.9685,-123.8137 -17.9723,-532.9897 4.0019,-665.834 26.9938,-161.9626 71.983,-318.9274 129.9668,-457.8886 62.9881,-150.9714 121.9543,-252.9144 234.9395,-403.8946 50.5038,-67.5051 81.0129,-111.0138 98.9141,-144.3125 C 3555.2156,5059.6876 3560.5,5036.566 3560.5,5010 v -40.5 H 2433 c -457.9992,-0.5 -741.7492,-1.2501 -914.8691,-3.25 -86.56,-1 -145.4644,-2.313 -184.6563,-4.0625 -39.1897,-1.7494 -58.7241,-3.9689 -66.3047,-6.6582 v 0 c -82.8162,-29.9343 -149.709,-108.8082 -164.6758,-196.6133 v 0 c -2.5014,-14.2581 -4.5535,-23.8451 -2.3223,-49.9649 2.2313,-26.1198 8.7607,-68.7395 23.4473,-148.8594 29.3731,-160.2396 91.3732,-470.4927 216.873,-1098.9921 78.4998,-392.4989 132.7492,-658.9992 169.6231,-831.6192 18.4369,-86.31 32.5315,-149.1496 43.1387,-192.5312 10.6071,-43.3817 17.7689,-67.3631 22.1894,-75.7129 v -0.01 -0.01 c 29.9379,-59.876 87.87,-113.8176 149.7617,-142.7676 v 0 l 49.8985,-22.9531 2609.8906,-3 c 1459.9989,-1.5 2127.5088,-3.7495 2441.1133,4.125 156.8022,3.9372 225.1432,10.4199 259.7285,20.7441 17.2927,5.1621 26.1276,11.2521 33.4687,18.5039 7.3412,7.2519 13.192,15.7168 24.3594,25.504 l 44.2539,39.2246 86.3028,-44.1563 c 119.167,-60.7077 265.35,-93.3161 408.5703,-93.1777 z M 1990.125,2211 c -24.3812,0 -48.6378,0.4992 -67.1523,1.5 -4.7517,0.2501 -8.4274,0.4857 -11.0801,0.7051 -2.6532,0.2194 -4.2371,0.4031 -5.002,0.6269 -0.1912,0.056 -0.3313,0.056 -0.5351,0.291 -0.1019,0.1178 -0.1771,0.4221 -0.086,0.6114 0.091,0.1892 0.2063,0.243 0.293,0.289 0.3467,0.1844 0.7176,0.2206 1.3652,0.3008 1.2954,0.1604 3.4847,0.3006 6.5528,0.4258 12.2723,0.5009 38.5173,0.75 75.5195,0.75 37.0022,0 63.2478,-0.2491 75.6445,-0.75 3.0992,-0.1252 5.3283,-0.2658 6.67,-0.4258 0.6708,-0.08 1.0837,-0.136 1.4199,-0.2871 0.084,-0.038 0.1731,-0.076 0.2773,-0.2012 0.1043,-0.1251 0.1624,-0.4332 0.072,-0.6113 -0.09,-0.1781 -0.1964,-0.232 -0.2813,-0.2793 -0.085,-0.047 -0.1656,-0.078 -0.2558,-0.1074 -0.7215,-0.2372 -2.2095,-0.4133 -4.7676,-0.6328 -2.5581,-0.2196 -6.124,-0.4549 -10.752,-0.7051 v 0 c -19.0138,-1.0007 -43.5192,-1.5 -67.9004,-1.5 z m 1369.75,0 c -218.3755,0 -436.8774,0.5 -602.8789,1.5 -82.7482,0.25 -127.8604,0.4995 -138.6641,0.7344 -1.3504,0.029 -2.1345,0.055 -2.4785,0.09 -0.043,0 -0.079,0.01 -0.125,0.018 -0.046,0.01 -0.3691,0.2523 -0.3711,0.2559 0,0 0.2766,0.728 0.334,0.7421 0.057,0.014 0.09,0.017 0.1309,0.021 0.164,0.019 0.4139,0.031 0.8047,0.045 1.563,0.057 5.2019,0.1122 10.8886,0.166 11.3735,0.1074 30.9196,0.2089 58.2324,0.3027 109.2516,0.375 342.7521,0.625 674.252,0.625 331.4999,0 565.0004,-0.25 674.127,-0.625 27.2816,-0.094 46.7885,-0.1953 58.1132,-0.3027 5.6624,-0.054 9.2725,-0.109 10.8067,-0.166 0.3835,-0.014 0.6253,-0.025 0.7871,-0.045 0.04,0 0.07,-0.01 0.1387,-0.027 0.068,-0.019 0.2129,-0.8597 0.2089,-0.8633 0,0 -0.2422,-0.1234 -0.2851,-0.1309 -0.043,-0.01 -0.079,-0.011 -0.1231,-0.016 -0.3536,-0.034 -1.1613,-0.061 -2.5293,-0.09 -10.9437,-0.2349 -56.242,-0.4844 -139.2402,-0.7344 v 0 c -165.5013,-1 -383.7523,-1.5 -602.127,-1.5 z m 2409.625,0 c -217.5005,0 -435.5024,0.5 -601.5039,1.5 -82.9982,0.25 -128.4225,0.4996 -139.5996,0.7344 -1.3972,0.029 -2.2416,0.057 -2.6172,0.09 -0.047,0 -0.087,0.01 -0.127,0.014 -0.04,0.01 -0.057,-0.01 -0.1777,0.047 -0.1211,0.053 -0.1148,0.8766 0,0.9277 0.1188,0.051 0.1355,0.041 0.1758,0.047 0.161,0.023 0.3762,0.033 0.7422,0.047 1.4639,0.057 4.9948,0.1122 10.5722,0.166 11.1549,0.1074 30.4664,0.2089 57.5293,0.3027 108.2516,0.375 340.5021,0.625 670.502,0.625 329.9999,0 562.7504,-0.25 672.002,-0.625 27.3128,-0.094 46.9058,-0.1953 58.373,-0.3027 5.7336,-0.054 9.4306,-0.1091 11.0625,-0.166 0.408,-0.014 0.6804,-0.028 0.8535,-0.045 0.043,0 0.079,-0.01 0.1231,-0.016 0.044,-0.01 0.3271,-0.182 0.33,-0.1855 0,0 -0.2113,-0.7941 -0.2734,-0.8106 -0.062,-0.017 -0.094,-0.021 -0.1348,-0.025 -0.3255,-0.039 -1.0516,-0.061 -2.3554,-0.09 -10.4302,-0.2349 -54.9784,-0.4844 -136.9766,-0.7344 v 0 c -164.0014,-1 -381.0023,-1.5 -598.502,-1.5 z m -3779.375,1 c 24.3687,0 48.8634,0.5007 67.8496,1.5 4.6208,0.2498 8.1796,0.4833 10.7188,0.7012 1.0256,0.088 1.1342,0.1511 1.8339,0.2363 -1.3088,0.1094 -2.6159,0.2193 -4.9218,0.3125 -12.3532,0.4991 -38.6078,0.75 -75.6055,0.75 -36.9977,0 -63.2528,-0.2509 -75.4805,-0.75 -2.1693,-0.088 -3.3308,-0.1936 -4.5918,-0.2969 0.754,-0.089 0.9235,-0.159 2.0469,-0.2519 2.6359,-0.2181 6.3037,-0.4514 11.0508,-0.7012 v 0 c 18.4855,-0.9992 42.729,-1.5 67.0977,-1.5 z m 1369.75,0 c 218.3741,0 436.6229,0.5 602.1211,1.5 v 0 c 42.4743,0.1279 48.0705,0.2491 71.2481,0.375 -109.3044,0.3742 -342.1779,0.625 -673.2461,0.625 -331.3102,0 -564.5357,-0.2504 -673.8633,-0.625 23.0752,-0.1257 28.5702,-0.2472 70.8653,-0.375 v 0 c 165.9982,-1 384.497,-1.5 602.8711,-1.5 z m 2409.625,0 c 217.4991,0 434.4979,0.5 598.4961,1.5 v 0 c 41.5967,0.1268 46.7186,0.2482 69.4766,0.373 -0.222,8e-4 -0.2536,0 -0.4766,0 -109.2482,0.375 -341.9986,0.625 -671.998,0.625 -329.0708,0 -559.9721,-0.2498 -668.6113,-0.623 23.252,-0.1262 29.0311,-0.2487 71.6133,-0.377 v 0 c 165.9982,-1 383.997,-1.5 601.4961,-1.5 z m 1913.3437,140.9141 c -71.3998,0.1132 -145.2839,10.9376 -220.9804,32.6054 v 0 0 c -68.5305,20.0089 -129.057,44.7674 -172.4805,69.42 -21.7117,12.3262 -39.1478,24.6238 -51.1797,36.3105 -12.0318,11.6867 -18.6992,22.7757 -18.6992,32.75 0,19.376 -7.2284,47.1009 -18.3379,74.5625 -11.1094,27.4616 -26.0982,54.6808 -41.5449,73.1172 v 0 c -39.867,47.8404 -123.806,87.8361 -196.6621,94.8223 -28.0036,2.5003 -42.8063,4.2298 -52.8301,10.0664 -10.0239,5.8367 -15.0749,15.7156 -23.5781,34.2226 v 0 c -25.8966,54.7813 -114.9003,139.8346 -188.7871,179.7734 -30.4958,16.4978 -47.181,24.9637 -69.4824,29.3243 -22.3014,4.3606 -50.2809,4.6152 -103.2793,4.6152 -126.9658,0 -162.7364,-12.9266 -299.7207,-104.916 v 0 C 6106.259,2839.5723 6047.1085,2814.4999 5970,2815.5 h -0.01 c -56.0715,9e-4 -100.6895,12.5221 -134.2949,37.8516 -33.6066,25.3303 -56.1663,63.4515 -68.1855,114.5332 v 0.01 0.01 c -9.0073,43.0346 -7.9994,61.2088 7.0058,118.2286 v 0 0 c 24.0401,88.1471 97.0708,197.177 177.164,263.2539 v 0 c 73.0788,60.0648 197.0779,124.0677 283.1914,146.0977 88.1486,23.0388 243.1269,20.0344 333.2598,-5.002 141.0591,-39.0163 217.193,-88.1022 378.2109,-240.1191 173.9719,-164.9733 282.8443,-230.8942 452.7715,-271.877 77.9133,-18.4794 184.3845,-21.7343 279.0899,-13.2383 47.3527,4.248 91.7666,11.4321 128.1972,21.1094 36.4283,9.6768 64.8755,21.8696 80.2559,36.0078 22.8964,21.4032 31.8208,47.978 27.9727,72.5567 -3.8482,24.5787 -20.4737,47.1875 -48.8457,60.6269 v 0 0 c -15.9869,7.9935 -25.6012,11.9436 -41.1328,11.3223 -15.5315,-0.6213 -37.0192,-5.8584 -76.5156,-16.3574 v 0 0 c -117.078,-29.0193 -234.1654,-28.0248 -333.2695,3.0078 v 0 0 c -108.0748,35.0243 -200.1562,93.082 -317.1875,203.1114 C 6828.6984,3608.5971 6652.8977,3690.5 6385,3690.5 c -134.9505,0 -231.8469,-19.9802 -340.7891,-70.9531 l -82.4218,-38.1953 -40.2266,72.4062 c -69.0144,120.0263 -119.0307,235.0649 -156.041,360.0996 v 0 0 c -9.4963,32.9872 -19.994,64.4782 -29.1133,88.7129 -4.5596,12.1174 -8.7753,22.4211 -12.3457,30.1856 -3.5703,7.7644 -6.5503,13.023 -8.414,14.8867 l -0.012,0.012 -0.012,0.012 c -3.3513,3.8302 -11.8168,8.1184 -22.5273,11.6055 -10.7105,3.4871 -23.6799,6.2302 -36.1348,7.2266 h -0.012 -0.012 c -19.9832,2.4979 -32.1616,2.9808 -42.291,-0.1074 -10.1295,-3.0883 -18.3077,-9.7648 -30.293,-21.75 -11.9852,-11.9853 -18.4032,-19.8949 -21.2461,-30.6485 -2.8429,-10.7535 -2.1083,-24.4552 0.3906,-47.9453 v 0 0 c 5.4888,-54.8874 33.2242,-143.8843 71.9649,-239.6113 38.7403,-95.7261 88.482,-198.2091 137.9629,-280.1777 v 0 l 44.1953,-72.3203 -50.2539,-54.2754 v 0 c -130.9289,-142.9233 -187.849,-293.7571 -165.8731,-446.5899 v 0 0 c 4.4921,-33.4413 15.9829,-73.9162 29.9707,-110.0098 13.9878,-36.0935 30.4986,-67.8247 44.9043,-83.7207 v 0 0 c 3.2598,-3.7613 5.5469,-6.7062 6.3945,-9.2324 0.4238,-1.2631 0.4756,-2.4512 0.037,-3.5195 -0.4385,-1.0684 -1.3407,-1.9729 -2.6816,-2.7578 -2.682,-1.5699 -7.1801,-2.7466 -14.0293,-3.875 -6.8493,-1.1285 -16.0421,-2.1911 -28.045,-3.4414 h 0.018 c -14.0148,-2.0022 -27.2753,-3.2531 -37.1641,-3.8789 -4.9443,-0.313 -9.0452,-0.4707 -11.9824,-0.4864 -1.4686,-0.01 -2.6452,0.02 -3.5019,0.082 -0.4284,0.031 -0.7757,0.07 -1.0528,0.123 -0.277,0.053 -0.4686,0.047 -0.7226,0.3008 -0.1145,0.1145 -0.1263,0.172 -0.1582,0.2422 -0.032,0.07 -0.061,0.1454 -0.092,0.2343 -0.062,0.1779 -0.1311,0.408 -0.2129,0.7012 -0.1637,0.5865 -0.3741,1.4197 -0.6309,2.4981 -0.5135,2.1567 -1.2134,5.2964 -2.0937,9.375 -1.7606,8.1571 -4.2381,20.0664 -7.3555,35.3379 -6.2347,30.5428 -15.0311,74.5308 -25.7812,128.8203 -21.5002,108.579 -50.8125,258.3611 -83.0625,424.1738 -64.5001,331.6254 -140.7518,727.3757 -189.752,985.8769 v 0 c -47.9996,251.9979 -75.0099,385.9991 -106.3496,464.9102 -31.3397,78.9111 -66.9031,102.7462 -132.379,134.7344 v 0 l -62.8984,30.9492 -608.8848,5 -609.4375,5.0039 -7.0547,56.4336 c -9.9837,74.8706 -50.9337,159.803 -127.9043,262.7637 -91.0111,121.0148 -140.0381,201.0569 -198.0469,316.0742 -224.0699,446.1392 -248.0697,1015.2683 -65.0214,1509.3984 99.0313,268.085 284.0638,544.1325 496.1269,742.1914 303.084,283.0785 722.1686,478.1169 1143.2773,532.1309 v 0 0 c 115.107,14.013 409.0386,12.0096 543.1191,-4 v 0 c 283.0631,-35.0078 542.1338,-122.0293 776.1934,-260.0645 411.1076,-242.0633 730.1832,-638.1558 873.2227,-1085.2793 71.0249,-221.0777 103.0281,-507.1133 84.0214,-736.1933 v 0 c -29.0052,-342.0619 -115.0482,-582.1873 -299.0898,-839.2461 v 0 c -46.9847,-65.9788 -101.992,-153.9995 -121.957,-194.9278 C 6817.4549,5209.7929 6815.5,5198.9924 6815.5,5110 c 0,-90.9909 1.954,-98.7891 40.9492,-179.7793 v 0 c 91.9298,-187.8534 289.8705,-362.7946 478.6972,-422.7402 89.871,-27.9599 224.8634,-29.9431 302.6875,-3.0039 v 0 c 110.814,37.9363 212.7351,145.8422 248.6836,264.6718 v 0 0 c 12.4646,39.8867 18.4765,109.1278 18.2266,183.2246 -0.2499,74.0969 -6.7514,153.0766 -19.2402,212.5235 v 0 c -22.015,106.0719 -25.0277,238.0796 -6.9961,315.2149 v 0 c 20.026,85.1106 76.0307,193.1285 132.1172,254.2227 44.5528,49.0575 97.865,84.3534 149.705,102.3848 51.8408,18.0315 102.2321,18.805 140.8946,-1.2793 v 0 0 c 17.1098,-9.0582 34.3927,-26.3557 47.4297,-45.5352 13.037,-19.1794 21.8359,-40.2294 21.8359,-56.9062 0,-3.4038 -1.5198,-9.4516 -4.2129,-17.6563 -2.6931,-8.2046 -6.5715,-18.5246 -11.3242,-30.2812 -9.5054,-23.5133 -22.5083,-52.77 -36.5117,-82.2773 v 0 L 8265.5,5494.8848 V 5390 c 0,-56.4926 1.2463,-88.9208 12.9824,-132.4941 11.736,-43.5731 33.9796,-98.3152 75.9785,-199.3125 v 0 c 64.0099,-153.0238 79.0389,-224.1596 80.0391,-393.1875 1.0001,-159.0215 -9.0249,-214.1637 -58.0352,-337.1894 v 0 c -53.0389,-131.096 -151.0913,-256.1587 -275.1602,-350.2109 v 0 c -345.2015,-261.1524 -888.404,-260.1473 -1242.5996,2.998 -91.075,67.0558 -210.0786,194.0667 -289.1133,309.1172 -43.4947,63.4923 -73.4905,103.4792 -97.3184,127.5566 -23.8279,24.0775 -41.4143,32.2266 -60.2695,32.2266 -19.3461,0 -39.2468,-8.942 -55.1719,-22.752 -15.925,-13.8099 -27.8612,-32.4767 -31.3359,-51.8359 v -0.01 0 c -3.452,-17.2602 4.4688,-43.9511 25.6973,-82.5371 21.2285,-38.5859 55.7188,-89.0728 105.2109,-154.0625 v 0 0 c 144.9652,-193.9534 296.9065,-327.8927 458.8183,-407.8496 189.9563,-91.9788 311.8218,-116.95 634.8008,-129.9492 256.015,-10.0006 340.141,-25.0223 455.1934,-79.0469 v 0 c 281.2131,-133.1009 420.3467,-443.3666 320.2559,-718.6192 v 0 c -39.0124,-110.0347 -72.0921,-162.1588 -155.1191,-243.1856 -138.8004,-137.362 -305.0416,-207.0199 -487.5079,-206.7304 z m 0,0.9882 c 182.212,-0.3029 348.1679,69.253 486.8047,206.4532 v 0 c 82.9708,80.9715 115.892,132.8476 154.8789,242.8106 v 0 c 99.9078,274.7465 -38.9583,584.4803 -319.7441,717.3789 -114.9462,53.9744 -198.822,68.9519 -454.8047,78.9512 -323.0204,13.0008 -445.1559,38.0298 -635.1993,130.0508 v 0 c -162.0873,80.0431 -314.1456,214.1048 -459.1797,408.1504 -49.5062,65.0084 -84.0161,115.5203 -105.2871,154.1836 -21.2677,38.6572 -29.348,65.4633 -25.8047,83.2031 5e-4,0 0,0.01 0,0.01 1e-4,6e-4 -2e-4,0 0,0 3.5275,19.6372 15.5898,38.4666 31.6621,52.4043 16.0749,13.9399 36.1743,22.998 55.8281,22.998 19.1447,0 37.0584,-8.3509 60.9805,-32.5234 23.922,-24.1726 53.9264,-64.1858 97.4316,-127.6934 78.9645,-114.9483 197.9602,-241.9364 288.8848,-308.8809 v 0 c 353.8033,-262.8538 896.6005,-263.8481 1241.3985,-3.002 123.9309,93.9476 221.8788,218.8854 274.8398,349.7891 48.9888,122.9722 58.9628,177.8315 57.9629,336.8086 -0.9998,168.9711 -15.9715,239.8358 -79.9609,392.8105 v 0 c -42.0006,101.0012 -64.2576,155.759 -76.0215,199.4355 C 8265.7537,5300.9207 8264.5,5333.4927 8264.5,5390 v 105.1152 l 53.0508,108.1055 c 13.9955,29.4907 26.9923,58.7316 36.4863,82.2168 4.7473,11.7433 8.6189,22.0484 11.3008,30.2187 2.6819,8.1704 4.1621,14.2476 4.1621,17.3438 0,16.3232 -8.7011,37.2732 -21.6641,56.3437 -12.9629,19.0706 -30.1802,36.2731 -47.0703,45.2149 -38.337,19.9135 -88.4441,19.1865 -140.1015,1.2187 -51.6592,-17.9684 -104.8463,-53.1719 -149.293,-102.1132 v 0 c -55.913,-60.9052 -111.9085,-168.8864 -131.8828,-253.7754 v 0 c -17.9677,-76.8644 -14.9806,-208.8545 7.0039,-314.7813 v 0 c 12.5109,-59.5528 19.0097,-138.5724 19.2598,-212.7246 0.2501,-74.1507 -5.7369,-143.4077 -18.2715,-183.5215 v 0 c -36.0524,-119.168 -138.1287,-227.2606 -249.3125,-265.3243 v 0 c -78.1759,-27.0601 -213.1823,-25.0438 -303.3105,2.9961 v 0 c -189.1711,60.0543 -387.2283,235.1117 -479.2988,423.2559 v 0 0 c -39.0125,80.9997 -41.0587,89.2038 -41.0587,180.211 0,89.0074 2.0452,100.2072 36.0508,170.2187 20.0347,41.0713 75.0261,129.0495 122.041,195.0704 v 0 c 183.957,256.9399 269.9136,496.8156 298.9083,838.752 18.9929,228.9191 -13.0039,514.8834 -83.9786,735.8047 -142.9602,446.8756 -461.8857,842.7845 -872.7773,1084.7207 -233.9399,137.9645 -492.8702,224.9434 -775.8066,259.9355 -133.9188,15.99 -427.9803,17.9864 -542.875,4 v 0 c -420.8891,-53.9866 -839.8042,-248.949 -1142.7187,-531.8691 -211.9364,-197.9407 -396.9046,-473.8942 -495.873,-741.8086 -182.9515,-493.8689 -158.9512,-1062.7417 64.9785,-1508.6016 57.9909,-114.982 106.965,-194.9396 197.9531,-315.9238 v 0 c 77.0279,-103.0374 118.0786,-188.1041 128.0957,-263.2324 v 0 l 6.9453,-55.5684 608.5625,-4.9961 609.1152,-5 63.0996,-31.0508 c 65.5241,-32.0117 101.4609,-56.1769 132.8711,-135.2656 31.4103,-79.0887 58.4001,-213.0883 106.4004,-465.0899 v 0 c 48.9997,-258.4982 125.2482,-654.249 189.748,-985.873 32.2499,-165.812 61.5628,-315.5929 83.0625,-424.1699 10.7499,-54.2885 19.5473,-98.2773 25.7813,-128.8164 3.117,-15.2696 5.5926,-27.1762 7.3515,-35.3262 0.8795,-4.075 1.5795,-7.2121 2.0899,-9.3555 0.2552,-1.0717 0.4639,-1.8956 0.6211,-2.4589 0.079,-0.2817 0.1456,-0.4983 0.1953,-0.6407 0.017,-0.049 0.027,-0.075 0.039,-0.1035 -0.056,0.06 -0.01,0.014 0.1757,-0.021 0.2127,-0.041 0.5339,-0.08 0.9395,-0.1093 0.8112,-0.059 1.9705,-0.086 3.4238,-0.078 2.9066,0.016 6.9933,0.1704 11.9238,0.4824 9.8612,0.6242 23.1009,1.8733 37.086,3.8711 h 0.01 0.01 c 11.9971,1.2497 21.1793,2.3121 27.9863,3.4336 6.807,1.1216 11.2464,2.32 13.6894,3.75 1.2216,0.7151 1.9288,1.4668 2.2598,2.2735 0.3311,0.8066 0.3125,1.7123 -0.061,2.8242 -0.7462,2.2238 -2.9591,5.1539 -6.1993,8.8926 -14.5927,16.1061 -31.0796,47.8702 -45.0898,84.0215 -14.0121,36.1563 -25.5214,76.6815 -30.0293,110.2402 v 0 c -22.0239,153.1661 35.0555,304.3323 166.125,447.4082 v 0 l 49.7442,53.7246 -43.8047,71.6777 v 0 c -49.5187,82.0308 -99.276,184.5475 -138.0352,280.3203 -38.7592,95.7728 -66.5239,184.7762 -72.0351,239.8887 -2.5007,23.5073 -3.2664,37.305 -0.3594,48.3008 2.9071,10.9964 9.4892,19.0868 21.5039,31.1015 12.0147,12.0147 20.3365,18.8383 30.707,22 10.3661,3.1604 22.6839,2.6439 42.6856,0.1445 h 0.023 c 12.538,-1.0052 25.5589,-3.7608 36.3418,-7.2715 10.7762,-3.5085 19.299,-7.7141 22.9551,-11.8789 2.1358,-2.1393 5.0281,-7.3756 8.6113,-15.168 3.5859,-7.798 7.8077,-18.1193 12.373,-30.2519 9.1304,-24.2642 19.6315,-55.772 29.1348,-88.7832 v 0 c 36.9887,-124.9608 86.9707,-239.9193 155.9531,-359.8887 v 0 l 39.7754,-71.5977 81.5782,37.8047 c 109.0575,51.027 206.1617,71.0469 341.2109,71.0469 268.1017,0 444.3021,-82.0976 713.3418,-334.1348 116.9685,-109.9703 208.8875,-167.9129 316.8125,-202.8886 h -0.01 c 98.8957,-30.9674 215.8088,-31.9728 332.7305,-2.9922 39.498,10.4994 61.0093,15.7619 76.7266,16.3906 15.7156,0.6286 25.6014,-3.4202 41.6093,-11.4238 v 0 c 28.6255,-13.5608 45.4988,-36.451 49.4004,-61.3711 3.9019,-24.9212 -5.1737,-51.8465 -28.2773,-73.4433 v 0 0 c -15.6202,-14.3605 -44.1709,-26.5426 -80.6777,-36.2402 -36.5069,-9.6976 -80.9681,-16.8887 -128.3653,-21.1406 -94.7944,-8.504 -201.3236,-5.2589 -279.4101,13.2617 v 0 c -170.0714,41.0172 -279.1994,107.0973 -453.2266,272.123 -160.9817,151.9828 -236.8484,200.8973 -377.789,239.8809 v 0 c -89.8672,24.9631 -244.8876,27.959 -332.7382,4.998 v 0 0 c -85.8861,-21.9709 -209.8845,-85.968 -282.8046,-145.9023 v 0 c -79.9055,-65.9219 -152.873,-174.8901 -176.834,-262.7422 v 0 c -14.9936,-56.9766 -15.9847,-74.8034 -6.9922,-117.7675 11.9816,-50.9111 34.4203,-88.7859 67.8106,-113.9532 33.3937,-25.186 77.7741,-37.6648 133.6996,-37.6648 v 0 0 c 76.8884,-0.9986 135.7384,23.9299 254.7148,103.9141 v 0 C 6361.7361,3012.4264 6397.966,3025.5 6525,3025.5 c 53.0015,0 81.0221,-0.2454 103.4707,-4.6348 22.4486,-4.3893 39.2634,-12.9235 69.7676,-29.4257 74.113,-40.0612 163.1095,-125.008 189.2129,-180.2266 v 0 0 c 8.4967,-18.493 13.4458,-28.1141 23.1719,-33.7774 9.726,-5.6632 24.423,-7.434 52.4179,-9.9336 v 0 c 73.1438,-7.0137 157.205,-47.0182 197.3379,-95.1777 v 0 c 15.5532,-18.5635 30.5646,-45.8444 41.7051,-73.3828 11.1405,-27.5384 18.4121,-55.3136 18.4121,-74.9375 0,-9.5256 6.4577,-20.4368 18.3945,-32.0312 11.9369,-11.5945 29.3134,-23.8595 50.9766,-36.1583 43.3257,-24.597 103.7977,-49.3391 172.2656,-69.33 75.6158,-21.6447 149.4067,-32.4596 220.707,-32.5782 z m -1770.875,6.8321 c -94.7823,0.047 -161.0967,0.453 -207.2285,1.3906 -46.1317,0.9376 -72.0705,2.4031 -86.1601,4.584 -7.0448,1.0904 -11.1276,2.337 -13.3614,3.8906 -1.1168,0.7768 -1.7782,1.6629 -2.0195,2.6289 -0.2413,0.966 -0.062,1.9613 0.336,2.957 18.9687,49.9214 27.9561,110.8682 22.9668,159.7637 v 0 l -6.0625,54.5547 H 6281 c 273.5003,0 439.7508,-0.4998 541.2598,-2.5 101.509,-2.0002 138.2193,-5.4493 152.9316,-11.5371 v 0 0 c 68.3213,-29.1371 87.3998,-122.539 36.1797,-178.7891 l -0.01,-0.01 -29.1425,-33.1621 -692.2246,-3.002 c -160,-0.5 -283.2509,-0.8125 -378.0333,-0.7656 z m 0,1 c 94.78,-0.047 218.0297,0.2656 378.0293,0.7656 l 691.7754,2.998 28.8536,32.836 v 0 c 50.7727,55.7505 31.8498,148.3433 -35.8262,177.2051 v 0 c -14.2877,5.9121 -51.0776,9.4631 -152.5684,11.4629 -101.4908,1.9998 -267.7411,2.5 -541.2402,2.5 h -659.4414 l 5.9394,-53.4473 v 0 c 5.0104,-49.1019 -4.0019,-110.1514 -23.0312,-160.2285 v 0 0 c -0.3517,-0.8793 -0.4686,-1.6482 -0.2949,-2.3438 0.1738,-0.6956 0.6384,-1.3686 1.6192,-2.0508 1.9616,-1.3643 5.9569,-2.6412 12.9433,-3.7226 13.9729,-2.1629 39.9092,-3.6349 86.0274,-4.5723 46.1181,-0.9374 112.429,-1.3437 207.2089,-1.3906 z M 1722.5898,2509.5 l -217.08,1088.4023 c -59.5001,299.0005 -113.4998,574.0009 -152.625,776.252 -19.5626,101.1255 -35.4079,184.0645 -46.3614,242.7227 -5.4767,29.329 -9.7299,52.5885 -12.6152,69.0175 -1.4427,8.2146 -2.5429,14.7208 -3.2832,19.4278 -0.7403,4.7069 -1.125,7.5514 -1.125,8.6777 0,17.1961 10.0274,40.2256 22.1328,53.3398 l 21.1465,23.1602 H 3145 c 797.4994,0 1250.7499,-0.5 1507.0039,-2.625 128.127,-1.0625 207.0049,-2.5307 255.0488,-4.5469 24.022,-1.0081 40.3335,-2.1534 51.252,-3.4551 10.9185,-1.3016 16.4221,-2.7118 18.9785,-4.4609 v 0 0 c 7.5232,-5.2663 13.4884,-10.4134 19.1973,-20.7618 5.7089,-10.3483 11.183,-25.883 17.875,-52.0254 13.3839,-52.2847 31.6308,-147.0292 66.1308,-327.5293 v 0 0 c 32.9992,-175.9956 82.998,-431.9941 109.998,-569.9941 v 0 c 27.0001,-137.0004 60.0002,-307.9989 74,-379.998 v 0 c 14.001,-71.0048 59.0004,-303.9997 100,-515.998 v 0 c 21,-105.9997 40,-202.9996 53.75,-274 6.8751,-35.5004 12.4392,-64.5025 16.2832,-84.8789 1.922,-10.1882 3.4137,-18.2202 4.4258,-23.832 0.5061,-2.806 0.8924,-5.0056 1.1524,-6.5703 0.1299,-0.7824 0.2284,-1.4061 0.2949,-1.8692 0.066,-0.4631 0.1035,-0.7318 0.1035,-0.9453 0,-0.2878 -0.1885,-0.4183 -0.2773,-0.4727 -0.089,-0.054 -0.1554,-0.077 -0.2286,-0.1 -0.1463,-0.045 -0.3141,-0.077 -0.5293,-0.1093 -0.4303,-0.066 -1.0426,-0.1275 -1.8554,-0.1895 -1.6257,-0.1239 -4.0391,-0.2462 -7.2285,-0.3672 -6.379,-0.2419 -15.8598,-0.4785 -28.2891,-0.7109 -24.8587,-0.4649 -61.509,-0.9102 -108.6816,-1.332 -94.3454,-0.8438 -230.7829,-1.5938 -399.1582,-2.2188 -336.7507,-1.25 -801.252,-2 -1312.252,-2 z m 0.8204,1 H 3582 c 510.999,0 975.4993,0.75 1312.248,2 168.3744,0.625 304.8123,1.375 399.1543,2.2188 47.171,0.4218 83.8177,0.8672 108.67,1.332 12.4261,0.2324 21.9053,0.4695 28.2714,0.7109 3.1831,0.1207 5.5892,0.2432 7.1895,0.3653 0.8002,0.061 1.4002,0.1214 1.7813,0.1796 0.072,0.011 0.091,0.019 0.1464,0.029 -0.015,0.1427 -0.017,0.2049 -0.055,0.4668 -0.065,0.4505 -0.1617,1.0695 -0.291,1.8477 -0.2585,1.5564 -0.6447,3.7551 -1.1504,6.5586 -1.0112,5.6069 -2.504,13.6374 -4.4257,23.8242 -3.8435,20.3736 -9.4044,49.3716 -16.2793,84.8711 -13.7498,70.999 -32.7502,167.9988 -53.75,273.998 v 0 c -41,211.9999 -86.0009,445.0023 -100,515.998 v 0 c -14.0002,72.001 -47.0004,242.9998 -74,379.998 v 0 c -27,138.0001 -77.0013,394.0005 -110.002,570.0039 v 0 c -34.5,180.4996 -52.7531,275.2556 -66.1192,327.4708 -6.683,26.1075 -12.1464,41.5729 -17.7812,51.7871 -5.6349,10.2141 -11.4197,15.192 -18.8965,20.4257 -2.1955,1.5003 -7.6595,2.9956 -18.5254,4.2911 -10.8706,1.2959 -27.1685,2.4397 -51.1777,3.4472 -48.0185,2.0151 -126.891,3.4844 -255.0137,4.5469 C 4395.7506,4789 3942.499,4789.5 3145,4789.5 H 1333.2207 l -20.8516,-22.8379 v 0 C 1300.4727,4753.7744 1290.5,4730.8039 1290.5,4714 c 0,-0.8737 0.3746,-3.8251 1.1133,-8.5215 0.7387,-4.6964 1.8372,-11.2009 3.2793,-19.4121 2.8842,-16.4225 7.1388,-39.6787 12.6152,-69.0059 10.9528,-58.6542 26.7951,-141.5905 46.3574,-242.7148 39.1248,-202.2485 93.1252,-477.2491 152.625,-776.248 z m 4852.6875,250.9531 c -22.2221,-0.2031 -46.6005,-0.2031 -72.1036,0.047 -91.9999,1 -138.2219,1.4938 -158.6796,4.0039 -5.1145,0.6275 -8.6173,1.374 -10.8731,2.3242 -1.1279,0.4751 -1.9525,1.002 -2.498,1.6328 -0.5456,0.6308 -0.7864,1.3869 -0.7071,2.1524 0.1587,1.5309 1.3874,3.0489 3.2305,4.8027 1.8431,1.7538 4.3489,3.728 7.2246,5.9785 96.13,78.102 208.4074,88.1412 297.5879,28.0196 v 0 c 14.0115,-9.5078 26.7704,-19.0136 36.0372,-26.6524 4.6333,-3.8194 8.3931,-7.172 11.0078,-9.834 1.3073,-1.3309 2.3276,-2.4867 3.0351,-3.4589 0.7075,-0.9723 1.1387,-1.7292 1.1387,-2.4688 0,-0.3437 -0.2151,-0.5978 -0.4414,-0.7695 -0.2263,-0.1717 -0.5035,-0.305 -0.8496,-0.4356 -0.6923,-0.2611 -1.6625,-0.5001 -2.9258,-0.7344 -2.5267,-0.4685 -6.2163,-0.9094 -10.959,-1.3242 -9.4854,-0.8296 -23.1765,-1.5486 -40.0566,-2.1113 -16.8802,-0.5627 -36.9479,-0.9687 -59.1699,-1.1719 z m -0.01,1 c 22.2155,0.2031 42.2728,0.6096 59.1426,1.1719 16.8698,0.5623 30.5538,1.2808 40.0059,2.1074 4.726,0.4134 8.3958,0.8553 10.8613,1.3125 1.2328,0.2286 2.1679,0.4638 2.7559,0.6856 0.2939,0.1109 0.4998,0.2207 0.5976,0.2949 0.098,0.074 0.047,0.068 0.047,-0.025 0,0.2604 -0.2876,0.9723 -0.9473,1.8789 -0.6597,0.9066 -1.655,2.04 -2.9414,3.3496 -2.5728,2.6193 -6.313,5.9542 -10.9297,9.7598 -9.2332,7.6112 -21.9743,17.1054 -35.9629,26.5976 -88.8171,59.8759 -200.5363,49.9181 -296.4042,-27.9746 v 0 0 c -2.8743,-2.2495 -5.3685,-4.2128 -7.1543,-5.9121 -1.7858,-1.6993 -2.8149,-3.1501 -2.9219,-4.1817 -0.053,-0.5158 0.072,-0.9394 0.4668,-1.3965 0.3954,-0.4571 1.0869,-0.9263 2.1289,-1.3652 2.084,-0.8779 5.5344,-1.6314 10.6074,-2.2539 20.2922,-2.4898 66.5704,-2.9961 158.5704,-3.9961 25.4968,-0.25 49.8685,-0.25 72.0839,-0.047 z m 842.9454,998.2989 c -3.5718,-0.2552 -7.6367,0.2511 -11.2247,1.7871 -2.0241,0.7606 -3.3849,1.5111 -4.1562,2.3183 -0.3869,0.405 -0.638,0.8466 -0.6699,1.3262 -0.032,0.4796 0.1838,0.9416 0.5371,1.2949 0.7065,0.7066 1.9329,1.1592 3.6816,1.4961 1.7427,0.3358 4.0137,0.5222 6.7735,0.5234 5.5412,0.5012 9.8288,0.021 12.3418,-1.0371 1.2583,-0.5298 2.135,-1.2158 2.3691,-2.1523 0.1171,-0.4683 0.04,-0.9723 -0.2051,-1.4277 -0.2379,-0.4429 -0.6311,-0.8515 -1.1484,-1.2461 -1.6606,-1.6485 -4.7349,-2.6283 -8.2988,-2.8828 z m 130,0 c -3.5718,-0.2552 -7.6367,0.2511 -11.2247,1.7871 -2.0241,0.7606 -3.3849,1.5111 -4.1562,2.3183 -0.3869,0.405 -0.638,0.8466 -0.6699,1.3262 -0.032,0.4796 0.1838,0.9416 0.5371,1.2949 0.7065,0.7066 1.9329,1.1592 3.6816,1.4961 1.7427,0.3358 4.0137,0.5222 6.7735,0.5234 5.5412,0.5012 9.8288,0.021 12.3418,-1.0371 1.2583,-0.5298 2.135,-1.2158 2.3691,-2.1523 0.1171,-0.4683 0.04,-0.9723 -0.2051,-1.4277 -0.2379,-0.4429 -0.6311,-0.8515 -1.1484,-1.2461 -1.6606,-1.6485 -4.7349,-2.6283 -8.2988,-2.8828 z m -130.0704,0.996 c 3.4258,0.2447 6.3388,1.2627 7.6817,2.6055 l 0.025,0.025 0.027,0.021 c 0.46,0.345 0.7506,0.6742 0.9004,0.9531 0.1498,0.2789 0.174,0.4937 0.1191,0.7129 -0.1096,0.4385 -0.6704,1.0025 -1.7871,1.4727 -2.2333,0.9403 -6.4397,1.458 -11.8867,0.9629 h -0.021 -0.021 c -2.7273,0 -4.9518,-0.1865 -6.6094,-0.5059 -1.6575,-0.3193 -2.7436,-0.8042 -3.1621,-1.2226 -0.2092,-0.2092 -0.259,-0.3566 -0.248,-0.5215 0.011,-0.1649 0.1115,-0.403 0.3965,-0.7012 0.5698,-0.5963 1.8341,-1.3433 3.7988,-2.08 h 0.01 l 0.012,-0.01 c 3.4102,-1.4615 7.3418,-1.9556 10.7675,-1.711 z m 130,0 c 3.4258,0.2447 6.3388,1.2627 7.6817,2.6055 l 0.025,0.025 0.027,0.021 c 0.46,0.345 0.7506,0.6742 0.9004,0.9531 0.1498,0.2789 0.174,0.4937 0.1191,0.7129 -0.1096,0.4385 -0.6704,1.0025 -1.7871,1.4727 -2.2333,0.9403 -6.4397,1.458 -11.8867,0.9629 h -0.021 -0.021 c -2.7273,0 -4.9518,-0.1865 -6.6094,-0.5059 -1.6575,-0.3193 -2.7436,-0.8042 -3.1621,-1.2226 -0.2092,-0.2092 -0.259,-0.3566 -0.248,-0.5215 0.011,-0.1649 0.1115,-0.403 0.3965,-0.7012 0.5698,-0.5963 1.8341,-1.3433 3.7988,-2.08 h 0.01 l 0.012,-0.01 c 3.4102,-1.4615 7.3418,-1.9556 10.7675,-1.711 z m 726.3614,132.8731 -0.7051,0.7051 24.0059,28.0058 0.01,0.01 c 11.5038,12.5041 19.2463,20.5048 24.1817,24.4277 2.4676,1.9615 4.1955,2.9728 5.6113,2.8731 0.7079,-0.05 1.3102,-0.4803 1.6328,-1.1231 0.3226,-0.6428 0.4414,-1.4739 0.4414,-2.5156 0,-0.5 -0.2513,-0.9018 -0.627,-1.4766 -0.3756,-0.5747 -0.9125,-1.2724 -1.5996,-2.0937 -1.3741,-1.6427 -3.3486,-3.7743 -5.791,-6.2793 -4.8848,-5.0101 -11.6371,-11.5124 -19.1406,-18.5156 l -0.01,-0.01 z m 4.2832,4.9883 23.0644,19.7695 c 7.4895,6.9905 14.2324,13.4847 19.0938,18.4707 2.4326,2.495 4.3956,4.6134 5.7402,6.2207 0.6723,0.8037 1.1901,1.481 1.5293,2 0.3392,0.519 0.4629,0.9297 0.4629,0.9297 0,0.9583 -0.1312,1.6584 -0.3359,2.0664 -0.2048,0.408 -0.4071,0.5479 -0.8086,0.5762 -0.803,0.056 -2.5126,-0.7447 -4.92,-2.6582 -4.8127,-3.8256 -12.5678,-11.8231 -24.0566,-24.3106 l -0.012,-0.012 z m -435.793,1383.375 c -0.4796,-0.032 -0.9416,0.1838 -1.2949,0.5371 -0.7066,0.7065 -1.1592,1.9329 -1.4961,3.6816 -0.3358,1.7427 -0.5222,4.0137 -0.5234,6.7735 -0.5012,5.5412 -0.021,9.8288 1.0371,12.3418 0.5298,1.2583 1.2158,2.135 2.1523,2.3691 0.4683,0.1171 0.9723,0.04 1.4277,-0.2051 0.4429,-0.2379 0.8515,-0.6311 1.2461,-1.1484 1.6485,-1.6606 2.6283,-4.7349 2.8828,-8.2988 0.2552,-3.5718 -0.2511,-7.6367 -1.7871,-11.2247 -0.7606,-2.0241 -1.5111,-3.3849 -2.3183,-4.1562 -0.405,-0.3869 -0.8466,-0.638 -1.3262,-0.6699 z m -0.066,0.9961 c 0.1649,0.011 0.403,0.1115 0.7012,0.3965 0.5963,0.5698 1.3433,1.8341 2.08,3.7988 v 0.01 l 0.01,0.012 c 1.4615,3.4102 1.9556,7.3418 1.711,10.7675 -0.2447,3.4258 -1.2627,6.3388 -2.6055,7.6817 l -0.025,0.025 -0.022,0.027 c -0.345,0.46 -0.6742,0.7506 -0.9531,0.9004 -0.2789,0.1498 -0.4937,0.174 -0.7129,0.1191 -0.4385,-0.1096 -1.0025,-0.6704 -1.4727,-1.7871 -0.9403,-2.2333 -1.458,-6.4397 -0.9629,-11.8867 v -0.021 -0.024 c 0,-2.7273 0.1865,-4.9518 0.5059,-6.6094 0.3193,-1.6575 0.8042,-2.7436 1.2226,-3.1621 0.2092,-0.2092 0.3566,-0.259 0.5215,-0.248 z m -610.9395,286.705 c -0.2569,0.033 -0.5159,0.1609 -0.6894,0.3633 -0.347,0.4049 -0.3749,0.9365 -0.3106,1.5782 0.064,0.6416 0.2524,1.4336 0.5547,2.4121 0.6008,1.9444 1.6687,4.6317 3.1563,8.1054 1.5198,5.0659 3.7922,8.8814 6.1347,11.0938 1.1713,1.1062 2.3654,1.8195 3.5293,2.0488 1.164,0.2293 2.31,-0.076 3.168,-0.9336 0.858,-0.858 1.2693,-2.0635 1.3027,-3.4355 0.033,-1.372 -0.2974,-2.9286 -0.9394,-4.5977 -1.2839,-3.3382 -3.8212,-7.1317 -7.3633,-10.6738 l -0.01,-0.01 -0.01,-0.01 c -2.5065,-2.2558 -4.4483,-3.8895 -5.8965,-4.8711 -0.7241,-0.4908 -1.3194,-0.8225 -1.8496,-0.9844 -0.2651,-0.081 -0.5204,-0.1211 -0.7774,-0.088 z m 0.129,0.9922 c 0.056,-0.01 0.1791,0 0.3554,0.053 0.3526,0.1076 0.8979,0.3931 1.5801,0.8554 1.3606,0.9222 3.2919,2.537 5.7754,4.7715 3.4557,3.4567 5.9172,7.1618 7.1328,10.3223 0.608,1.5809 0.9021,3.0243 0.873,4.2148 -0.029,1.1905 -0.3677,2.11 -1.0097,2.752 -0.642,0.642 -1.371,0.8371 -2.2695,0.6601 -0.8986,-0.1769 -1.9545,-0.7761 -3.0333,-1.7949 -2.1574,-2.0376 -4.385,-5.7221 -5.8652,-10.6562 l -0.01,-0.025 -0.012,-0.027 c -1.4972,-3.4934 -2.5538,-6.1738 -3.1367,-8.0605 -0.2915,-0.9434 -0.4628,-1.6904 -0.5157,-2.2168 -0.053,-0.5264 0.044,-0.7916 0.072,-0.8242 0.014,-0.016 0,-0.016 0.061,-0.024 z M 3073.8164,6602.9844 c -0.4796,-0.032 -0.9416,0.1838 -1.2949,0.5371 -0.7066,0.7065 -1.1592,1.9329 -1.4961,3.6816 -0.3358,1.7427 -0.5222,4.0137 -0.5234,6.7735 -0.5012,5.5412 -0.021,9.8288 1.0371,12.3418 0.5298,1.2583 1.2158,2.135 2.1523,2.3691 0.4683,0.1171 0.9723,0.04 1.4277,-0.2051 0.4429,-0.2379 0.8515,-0.6311 1.2461,-1.1484 1.6485,-1.6606 2.6283,-4.7349 2.8828,-8.2988 0.2552,-3.5718 -0.2511,-7.6367 -1.7871,-11.2247 -0.7606,-2.0241 -1.5111,-3.3849 -2.3183,-4.1562 -0.405,-0.3869 -0.8466,-0.638 -1.3262,-0.6699 z m -0.066,0.9961 c 0.1649,0.011 0.403,0.1115 0.7012,0.3965 0.5963,0.5698 1.3433,1.8341 2.0801,3.7988 v 0.01 l 0.01,0.012 c 1.4615,3.4102 1.9556,7.3418 1.711,10.7675 -0.2447,3.4258 -1.2627,6.3388 -2.6055,7.6817 l -0.025,0.025 -0.021,0.027 c -0.345,0.46 -0.6742,0.7506 -0.9531,0.9004 -0.2789,0.1498 -0.4937,0.174 -0.7129,0.1191 -0.4385,-0.1096 -1.0025,-0.6704 -1.4727,-1.7871 -0.9403,-2.2333 -1.458,-6.4397 -0.9629,-11.8867 v -0.021 -0.024 c 0,-2.7273 0.1865,-4.9518 0.5059,-6.6094 0.3193,-1.6575 0.8042,-2.7436 1.2226,-3.1621 0.2092,-0.2092 0.3566,-0.259 0.5215,-0.248 z m 3816.2051,1285.5781 c -0.1487,-0.027 -0.279,-0.014 -0.4063,0.012 -0.2545,0.052 -0.5086,0.161 -0.8125,0.3203 -0.6077,0.3187 -1.3997,0.8478 -2.4101,1.5977 -2.0136,1.4944 -4.8883,3.8734 -8.6231,7.1094 -5.0177,3.5132 -9.529,7.2719 -12.7988,10.416 -1.6361,1.5731 -2.9607,2.9921 -3.8887,4.1601 -0.464,0.584 -0.8296,1.1051 -1.0879,1.5645 -0.2582,0.4594 -0.4277,0.845 -0.4277,1.2617 0,1.0417 0.1259,1.8976 0.4062,2.584 0.2804,0.6864 0.7424,1.211 1.3516,1.4707 1.2184,0.5193 2.7622,0.031 4.6309,-1.1289 3.7373,-2.3197 8.9844,-7.5922 15.5,-15.6113 3.2536,-4.0045 5.6327,-7.0703 7.1465,-9.2305 0.7568,-1.0801 1.2963,-1.9295 1.6289,-2.5801 0.1662,-0.3253 0.2829,-0.5988 0.3457,-0.8555 0.063,-0.2566 0.1058,-0.5546 -0.1192,-0.8359 -0.1125,-0.1406 -0.2869,-0.2266 -0.4355,-0.2539 z m -0.5313,1.1269 c -0.045,0.1161 -0.067,0.1989 -0.1504,0.3614 -0.2924,0.5721 -0.8154,1.4023 -1.5586,2.4629 -1.4862,2.121 -3.8571,5.1802 -7.1035,9.1757 -6.4844,7.9809 -11.7373,13.2084 -15.25,15.3887 -1.7563,1.0902 -3.025,1.3518 -3.7129,1.0586 -0.3439,-0.1466 -0.6085,-0.4188 -0.8164,-0.9277 -0.2079,-0.509 -0.332,-1.2468 -0.332,-2.2051 0,-0.083 0.081,-0.3852 0.2988,-0.7734 0.2183,-0.3883 0.5558,-0.8751 0.9981,-1.4317 0.8845,-1.1132 2.1849,-2.5067 3.7988,-4.0586 3.2278,-3.1037 7.7134,-6.8415 12.6914,-10.3261 l 0.022,-0.016 0.019,-0.017 c 3.7455,-3.2462 6.6165,-5.6151 8.5957,-7.084 0.9896,-0.7345 1.7601,-1.2445 2.2774,-1.5157 0.1052,-0.055 0.1405,-0.057 0.2226,-0.092 z M 6819,7959.5 c -0.5972,0 -1.1981,0.3051 -2.0156,0.7969 -0.8176,0.4917 -1.813,1.1998 -2.9785,2.1054 -2.3312,1.8114 -5.3365,4.4112 -8.8418,7.6036 -7.0107,6.3847 -16.0145,15.1375 -25.5176,24.6406 -9.5093,9.5093 -17.5175,18.266 -22.7832,24.6601 -2.6329,3.1971 -4.5783,5.7984 -5.6973,7.6368 -0.5595,0.9191 -0.9171,1.63 -1.0488,2.2226 -0.066,0.2963 -0.092,0.5906 0.064,0.8848 0.1569,0.2942 0.5198,0.4492 0.8184,0.4492 0.5972,0 1.1981,-0.3051 2.0156,-0.7969 0.8176,-0.4917 1.813,-1.1998 2.9785,-2.1054 2.3312,-1.8114 5.3365,-4.4112 8.8418,-7.6036 7.0107,-6.3847 16.0145,-15.1375 25.5176,-24.6406 9.5093,-9.5093 17.5175,-18.266 22.7832,-24.6601 2.6329,-3.1971 4.5783,-5.7984 5.6973,-7.6368 0.5595,-0.9191 0.9171,-1.63 1.0488,-2.2226 0.066,-0.2963 0.092,-0.5906 -0.064,-0.8848 -0.1569,-0.2942 -0.5198,-0.4492 -0.8184,-0.4492 z m -0.082,1.0352 c -2e-4,0.036 0,0.01 -0.012,0.08 -0.079,0.3567 -0.3934,1.0442 -0.9277,1.9219 -1.0685,1.7554 -2.9981,4.3416 -5.6152,7.5195 -5.2343,6.3559 -13.2261,15.0992 -22.7168,24.5899 -9.4969,9.4969 -18.4931,18.2441 -25.4824,24.6094 -3.4947,3.1826 -6.4894,5.7703 -8.7832,7.5527 -1.147,0.8912 -2.1203,1.5816 -2.8809,2.0391 -0.7191,0.4325 -1.2295,0.5968 -1.418,0.6171 2e-4,-0.036 0,-0.01 0.012,-0.08 0.079,-0.3567 0.3935,-1.0442 0.9278,-1.9219 1.0685,-1.7554 2.9981,-4.3416 5.6152,-7.5195 5.2343,-6.3559 13.2261,-15.0992 22.7168,-24.5899 9.4969,-9.4969 18.4931,-18.2441 25.4824,-24.6094 3.4947,-3.1826 6.4894,-5.7703 8.7832,-7.5527 1.147,-0.8912 2.1203,-1.5816 2.8809,-2.0391 0.7191,-0.4325 1.2295,-0.5968 1.418,-0.6171 z"
         id="path50" />
    </g>
    <path
       d="m 4279,7181 c -41,-41 -40,-87 4,-127 44,-42 484,-377 529,-403 41,-25 79,-21 116,12 25,23 30,83 10,108 -7,9 -116,94 -243,191 -126,96 -252,191 -278,211 -61,46 -97,48 -138,8 z"
       id="path43"
       style="fill:#8ca69b;fill-opacity:1" />
    <path
       d="m 5828,7178 c -53,-37 -380,-285 -475,-360 -49,-38 -64,-57 -69,-84 -11,-62 44,-113 108,-99 30,7 513,365 566,421 39,41 42,81 10,119 -13,15 -38,28 -58,31 -29,5 -44,0 -82,-28 z"
       id="path44"
       style="fill:#8ca69b;fill-opacity:1" />
    <path
       d="m 4370,6321 c -76,-24 -127,-71 -163,-151 -27,-59 -29,-193 -4,-266 21,-62 79,-132 124,-150 18,-8 57,-14 86,-14 199,0 301,321 160,508 -42,55 -143,92 -203,73 z"
       id="path45"
       style="fill:#8ca69b;fill-opacity:1" />
    <path
       d="m 5818,6321 c -159,-51 -226,-269 -138,-447 127,-258 454,-108 427,195 -9,95 -57,186 -118,223 -49,31 -125,43 -171,29 z"
       id="path46"
       style="fill:#8ca69b;fill-opacity:1" />
    <path
       d="m 3094,3990 c -70,-28 -144,-107 -173,-185 -19,-50 -22,-73 -18,-140 3,-45 14,-104 26,-135 45,-118 170,-233 282,-260 150,-36 314,32 378,158 93,182 -11,449 -213,547 -80,39 -205,46 -282,15 z"
       id="path47"
       style="fill:#8ca69b;fill-opacity:1" />
    <path
       d="m 1990.2232,2140.6433 c -25.0508,-11.9935 -46.344,-33.9816 -55.1118,-54.9703 -20.0406,-48.9735 2.5051,-100.9454 55.1118,-126.9313 37.5762,-18.9897 103.9608,-18.9897 3123.8344,-18.9897 2857.0434,0 3088.7633,0.9994 3121.3294,16.9908 88.9303,40.9778 83.9201,153.9167 -8.7678,191.8962 -20.0407,7.9956 -864.2525,10.994 -3112.5616,10.994 -3019.8736,0 -3086.2582,0 -3123.8344,-18.9897 z"
       id="path48"
       style="fill:#7a4d38;fill-opacity:1;stroke:#7a4d38;stroke-width:1.11887;stroke-opacity:1" />
  </g>
</svg>
